<mxfile host="app.diagrams.net" agent="Mozilla/5.0 (Windows NT 10.0; Win64; x64) AppleWebKit/537.36 (KHTML, like Gecko) Chrome/133.0.0.0 Safari/537.36" version="26.0.16">
  <diagram name="第 1 页" id="ny8IHj76mkpkB_cin0nO">
    <mxGraphModel dx="2261" dy="746" grid="1" gridSize="10" guides="1" tooltips="1" connect="1" arrows="1" fold="1" page="1" pageScale="1" pageWidth="827" pageHeight="1169" math="0" shadow="0">
      <root>
        <mxCell id="0" />
        <mxCell id="1" parent="0" />
        <mxCell id="e0GcYGxdPTeqp4JWLvhb-48" style="edgeStyle=orthogonalEdgeStyle;rounded=0;orthogonalLoop=1;jettySize=auto;html=1;exitX=0.5;exitY=1;exitDx=0;exitDy=0;entryX=0.5;entryY=0;entryDx=0;entryDy=0;" edge="1" parent="1" source="e0GcYGxdPTeqp4JWLvhb-1" target="e0GcYGxdPTeqp4JWLvhb-47">
          <mxGeometry relative="1" as="geometry" />
        </mxCell>
        <mxCell id="e0GcYGxdPTeqp4JWLvhb-1" value="开始" style="rounded=1;whiteSpace=wrap;html=1;" vertex="1" parent="1">
          <mxGeometry x="354" width="120" height="40" as="geometry" />
        </mxCell>
        <mxCell id="e0GcYGxdPTeqp4JWLvhb-6" style="edgeStyle=orthogonalEdgeStyle;rounded=0;orthogonalLoop=1;jettySize=auto;html=1;exitX=0.5;exitY=1;exitDx=0;exitDy=0;entryX=0.5;entryY=0;entryDx=0;entryDy=0;" edge="1" parent="1" source="e0GcYGxdPTeqp4JWLvhb-2" target="e0GcYGxdPTeqp4JWLvhb-3">
          <mxGeometry relative="1" as="geometry" />
        </mxCell>
        <mxCell id="e0GcYGxdPTeqp4JWLvhb-2" value="点击扫描" style="rounded=0;whiteSpace=wrap;html=1;fillColor=#ffe6cc;strokeColor=#d79b00;" vertex="1" parent="1">
          <mxGeometry x="354" y="170" width="120" height="40" as="geometry" />
        </mxCell>
        <mxCell id="e0GcYGxdPTeqp4JWLvhb-7" style="edgeStyle=orthogonalEdgeStyle;rounded=0;orthogonalLoop=1;jettySize=auto;html=1;exitX=0.5;exitY=1;exitDx=0;exitDy=0;entryX=0.5;entryY=0;entryDx=0;entryDy=0;" edge="1" parent="1" source="e0GcYGxdPTeqp4JWLvhb-3" target="e0GcYGxdPTeqp4JWLvhb-4">
          <mxGeometry relative="1" as="geometry" />
        </mxCell>
        <mxCell id="e0GcYGxdPTeqp4JWLvhb-3" value="拍照截图" style="rounded=0;whiteSpace=wrap;html=1;" vertex="1" parent="1">
          <mxGeometry x="354" y="240" width="120" height="40" as="geometry" />
        </mxCell>
        <mxCell id="e0GcYGxdPTeqp4JWLvhb-9" style="edgeStyle=orthogonalEdgeStyle;rounded=0;orthogonalLoop=1;jettySize=auto;html=1;exitX=0.5;exitY=1;exitDx=0;exitDy=0;entryX=0.5;entryY=0;entryDx=0;entryDy=0;" edge="1" parent="1" source="e0GcYGxdPTeqp4JWLvhb-4" target="e0GcYGxdPTeqp4JWLvhb-8">
          <mxGeometry relative="1" as="geometry" />
        </mxCell>
        <mxCell id="e0GcYGxdPTeqp4JWLvhb-4" value="图片缓存" style="rounded=0;whiteSpace=wrap;html=1;" vertex="1" parent="1">
          <mxGeometry x="354" y="310" width="120" height="40" as="geometry" />
        </mxCell>
        <mxCell id="e0GcYGxdPTeqp4JWLvhb-11" style="edgeStyle=orthogonalEdgeStyle;rounded=0;orthogonalLoop=1;jettySize=auto;html=1;exitX=1;exitY=0.5;exitDx=0;exitDy=0;entryX=0.5;entryY=0;entryDx=0;entryDy=0;" edge="1" parent="1" source="e0GcYGxdPTeqp4JWLvhb-8" target="e0GcYGxdPTeqp4JWLvhb-50">
          <mxGeometry relative="1" as="geometry" />
        </mxCell>
        <mxCell id="e0GcYGxdPTeqp4JWLvhb-8" value="ocr识别" style="rounded=0;whiteSpace=wrap;html=1;" vertex="1" parent="1">
          <mxGeometry x="354" y="380" width="120" height="40" as="geometry" />
        </mxCell>
        <mxCell id="e0GcYGxdPTeqp4JWLvhb-13" style="edgeStyle=orthogonalEdgeStyle;rounded=0;orthogonalLoop=1;jettySize=auto;html=1;exitX=0;exitY=0.5;exitDx=0;exitDy=0;entryX=1;entryY=0.5;entryDx=0;entryDy=0;" edge="1" parent="1" source="e0GcYGxdPTeqp4JWLvhb-10" target="e0GcYGxdPTeqp4JWLvhb-12">
          <mxGeometry relative="1" as="geometry" />
        </mxCell>
        <mxCell id="e0GcYGxdPTeqp4JWLvhb-14" value="取消扫描" style="edgeLabel;html=1;align=center;verticalAlign=middle;resizable=0;points=[];" vertex="1" connectable="0" parent="e0GcYGxdPTeqp4JWLvhb-13">
          <mxGeometry x="-0.1081" y="-4" relative="1" as="geometry">
            <mxPoint as="offset" />
          </mxGeometry>
        </mxCell>
        <mxCell id="e0GcYGxdPTeqp4JWLvhb-24" style="edgeStyle=orthogonalEdgeStyle;rounded=0;orthogonalLoop=1;jettySize=auto;html=1;exitX=0.5;exitY=1;exitDx=0;exitDy=0;entryX=0.5;entryY=0;entryDx=0;entryDy=0;" edge="1" parent="1" source="e0GcYGxdPTeqp4JWLvhb-10" target="e0GcYGxdPTeqp4JWLvhb-23">
          <mxGeometry relative="1" as="geometry" />
        </mxCell>
        <mxCell id="e0GcYGxdPTeqp4JWLvhb-34" value="扫描成功" style="edgeLabel;html=1;align=center;verticalAlign=middle;resizable=0;points=[];" vertex="1" connectable="0" parent="e0GcYGxdPTeqp4JWLvhb-24">
          <mxGeometry y="2" relative="1" as="geometry">
            <mxPoint as="offset" />
          </mxGeometry>
        </mxCell>
        <mxCell id="e0GcYGxdPTeqp4JWLvhb-10" value="扫描中" style="ellipse;whiteSpace=wrap;html=1;fillColor=#ffe6cc;strokeColor=#d79b00;" vertex="1" parent="1">
          <mxGeometry x="354" y="450" width="120" height="80" as="geometry" />
        </mxCell>
        <mxCell id="e0GcYGxdPTeqp4JWLvhb-15" style="edgeStyle=orthogonalEdgeStyle;rounded=0;orthogonalLoop=1;jettySize=auto;html=1;exitX=0.5;exitY=0;exitDx=0;exitDy=0;entryX=0;entryY=0.5;entryDx=0;entryDy=0;" edge="1" parent="1" source="e0GcYGxdPTeqp4JWLvhb-12" target="e0GcYGxdPTeqp4JWLvhb-8">
          <mxGeometry relative="1" as="geometry" />
        </mxCell>
        <mxCell id="e0GcYGxdPTeqp4JWLvhb-16" value="继续扫描" style="edgeLabel;html=1;align=center;verticalAlign=middle;resizable=0;points=[];" vertex="1" connectable="0" parent="e0GcYGxdPTeqp4JWLvhb-15">
          <mxGeometry x="0.0098" y="-5" relative="1" as="geometry">
            <mxPoint as="offset" />
          </mxGeometry>
        </mxCell>
        <mxCell id="e0GcYGxdPTeqp4JWLvhb-17" style="edgeStyle=orthogonalEdgeStyle;rounded=0;orthogonalLoop=1;jettySize=auto;html=1;exitX=0;exitY=0.5;exitDx=0;exitDy=0;entryX=0;entryY=0.5;entryDx=0;entryDy=0;" edge="1" parent="1" source="e0GcYGxdPTeqp4JWLvhb-12" target="e0GcYGxdPTeqp4JWLvhb-47">
          <mxGeometry relative="1" as="geometry" />
        </mxCell>
        <mxCell id="e0GcYGxdPTeqp4JWLvhb-18" value="取消扫描" style="edgeLabel;html=1;align=center;verticalAlign=middle;resizable=0;points=[];" vertex="1" connectable="0" parent="e0GcYGxdPTeqp4JWLvhb-17">
          <mxGeometry x="-0.3311" y="-1" relative="1" as="geometry">
            <mxPoint as="offset" />
          </mxGeometry>
        </mxCell>
        <mxCell id="e0GcYGxdPTeqp4JWLvhb-20" style="edgeStyle=orthogonalEdgeStyle;rounded=0;orthogonalLoop=1;jettySize=auto;html=1;exitX=0.5;exitY=1;exitDx=0;exitDy=0;entryX=0.5;entryY=0;entryDx=0;entryDy=0;" edge="1" parent="1" source="e0GcYGxdPTeqp4JWLvhb-12" target="e0GcYGxdPTeqp4JWLvhb-19">
          <mxGeometry relative="1" as="geometry" />
        </mxCell>
        <mxCell id="e0GcYGxdPTeqp4JWLvhb-12" value="识别中断页" style="rounded=0;whiteSpace=wrap;html=1;" vertex="1" parent="1">
          <mxGeometry x="160" y="470" width="120" height="40" as="geometry" />
        </mxCell>
        <mxCell id="e0GcYGxdPTeqp4JWLvhb-37" style="edgeStyle=orthogonalEdgeStyle;rounded=0;orthogonalLoop=1;jettySize=auto;html=1;exitX=0;exitY=0.5;exitDx=0;exitDy=0;entryX=1;entryY=0.5;entryDx=0;entryDy=0;" edge="1" parent="1" source="e0GcYGxdPTeqp4JWLvhb-19" target="e0GcYGxdPTeqp4JWLvhb-36">
          <mxGeometry relative="1" as="geometry" />
        </mxCell>
        <mxCell id="e0GcYGxdPTeqp4JWLvhb-19" value="图片写入本地" style="rounded=0;whiteSpace=wrap;html=1;fillColor=#fff2cc;strokeColor=#d6b656;" vertex="1" parent="1">
          <mxGeometry x="160" y="540" width="120" height="40" as="geometry" />
        </mxCell>
        <mxCell id="e0GcYGxdPTeqp4JWLvhb-21" value="关键节点" style="rounded=0;whiteSpace=wrap;html=1;fillColor=#ffe6cc;strokeColor=#d79b00;" vertex="1" parent="1">
          <mxGeometry x="60" width="60" height="30" as="geometry" />
        </mxCell>
        <mxCell id="e0GcYGxdPTeqp4JWLvhb-22" value="后台任务" style="rounded=0;whiteSpace=wrap;html=1;fillColor=#fff2cc;strokeColor=#d6b656;" vertex="1" parent="1">
          <mxGeometry x="-20" width="60" height="30" as="geometry" />
        </mxCell>
        <mxCell id="e0GcYGxdPTeqp4JWLvhb-26" style="edgeStyle=orthogonalEdgeStyle;rounded=0;orthogonalLoop=1;jettySize=auto;html=1;exitX=0;exitY=0.5;exitDx=0;exitDy=0;entryX=0.5;entryY=0;entryDx=0;entryDy=0;" edge="1" parent="1" source="e0GcYGxdPTeqp4JWLvhb-23" target="e0GcYGxdPTeqp4JWLvhb-25">
          <mxGeometry relative="1" as="geometry" />
        </mxCell>
        <mxCell id="e0GcYGxdPTeqp4JWLvhb-30" value="交给后台" style="edgeLabel;html=1;align=center;verticalAlign=middle;resizable=0;points=[];" vertex="1" connectable="0" parent="e0GcYGxdPTeqp4JWLvhb-26">
          <mxGeometry x="-0.1951" y="-3" relative="1" as="geometry">
            <mxPoint as="offset" />
          </mxGeometry>
        </mxCell>
        <mxCell id="e0GcYGxdPTeqp4JWLvhb-32" style="edgeStyle=orthogonalEdgeStyle;rounded=0;orthogonalLoop=1;jettySize=auto;html=1;exitX=0.5;exitY=1;exitDx=0;exitDy=0;entryX=0.5;entryY=0;entryDx=0;entryDy=0;" edge="1" parent="1" source="e0GcYGxdPTeqp4JWLvhb-23" target="e0GcYGxdPTeqp4JWLvhb-31">
          <mxGeometry relative="1" as="geometry" />
        </mxCell>
        <mxCell id="e0GcYGxdPTeqp4JWLvhb-35" style="edgeStyle=orthogonalEdgeStyle;rounded=0;orthogonalLoop=1;jettySize=auto;html=1;exitX=0;exitY=0.5;exitDx=0;exitDy=0;entryX=1;entryY=0.5;entryDx=0;entryDy=0;" edge="1" parent="1" source="e0GcYGxdPTeqp4JWLvhb-23" target="e0GcYGxdPTeqp4JWLvhb-19">
          <mxGeometry relative="1" as="geometry" />
        </mxCell>
        <mxCell id="e0GcYGxdPTeqp4JWLvhb-23" value="返回扫描结果" style="rounded=0;whiteSpace=wrap;html=1;" vertex="1" parent="1">
          <mxGeometry x="354" y="560" width="120" height="60" as="geometry" />
        </mxCell>
        <mxCell id="e0GcYGxdPTeqp4JWLvhb-28" style="edgeStyle=orthogonalEdgeStyle;rounded=0;orthogonalLoop=1;jettySize=auto;html=1;exitX=1;exitY=0.5;exitDx=0;exitDy=0;entryX=0;entryY=0.5;entryDx=0;entryDy=0;" edge="1" parent="1" source="e0GcYGxdPTeqp4JWLvhb-25" target="e0GcYGxdPTeqp4JWLvhb-27">
          <mxGeometry relative="1" as="geometry" />
        </mxCell>
        <mxCell id="e0GcYGxdPTeqp4JWLvhb-25" value="生成图表" style="rounded=0;whiteSpace=wrap;html=1;fillColor=#fff2cc;strokeColor=#d6b656;" vertex="1" parent="1">
          <mxGeometry x="160" y="620" width="120" height="40" as="geometry" />
        </mxCell>
        <mxCell id="e0GcYGxdPTeqp4JWLvhb-39" style="edgeStyle=orthogonalEdgeStyle;rounded=0;orthogonalLoop=1;jettySize=auto;html=1;exitX=1;exitY=0.5;exitDx=0;exitDy=0;entryX=0;entryY=0.5;entryDx=0;entryDy=0;" edge="1" parent="1" source="e0GcYGxdPTeqp4JWLvhb-27" target="e0GcYGxdPTeqp4JWLvhb-38">
          <mxGeometry relative="1" as="geometry" />
        </mxCell>
        <mxCell id="e0GcYGxdPTeqp4JWLvhb-40" value="AI分析" style="edgeLabel;html=1;align=center;verticalAlign=middle;resizable=0;points=[];" vertex="1" connectable="0" parent="e0GcYGxdPTeqp4JWLvhb-39">
          <mxGeometry y="-3" relative="1" as="geometry">
            <mxPoint as="offset" />
          </mxGeometry>
        </mxCell>
        <mxCell id="e0GcYGxdPTeqp4JWLvhb-27" value="图表展示" style="rounded=0;whiteSpace=wrap;html=1;" vertex="1" parent="1">
          <mxGeometry x="354" y="750" width="120" height="50" as="geometry" />
        </mxCell>
        <mxCell id="e0GcYGxdPTeqp4JWLvhb-33" style="edgeStyle=orthogonalEdgeStyle;rounded=0;orthogonalLoop=1;jettySize=auto;html=1;exitX=0.5;exitY=1;exitDx=0;exitDy=0;entryX=0.5;entryY=0;entryDx=0;entryDy=0;" edge="1" parent="1" source="e0GcYGxdPTeqp4JWLvhb-31" target="e0GcYGxdPTeqp4JWLvhb-27">
          <mxGeometry relative="1" as="geometry" />
        </mxCell>
        <mxCell id="e0GcYGxdPTeqp4JWLvhb-31" value="数据文案展示" style="rounded=0;whiteSpace=wrap;html=1;" vertex="1" parent="1">
          <mxGeometry x="354" y="660" width="120" height="50" as="geometry" />
        </mxCell>
        <mxCell id="e0GcYGxdPTeqp4JWLvhb-53" style="edgeStyle=orthogonalEdgeStyle;rounded=0;orthogonalLoop=1;jettySize=auto;html=1;exitX=0;exitY=0.5;exitDx=0;exitDy=0;entryX=1;entryY=0.5;entryDx=0;entryDy=0;" edge="1" parent="1" source="e0GcYGxdPTeqp4JWLvhb-36" target="e0GcYGxdPTeqp4JWLvhb-52">
          <mxGeometry relative="1" as="geometry" />
        </mxCell>
        <mxCell id="e0GcYGxdPTeqp4JWLvhb-36" value="存入历史记录" style="ellipse;whiteSpace=wrap;html=1;fillColor=#ffe6cc;strokeColor=#d79b00;" vertex="1" parent="1">
          <mxGeometry x="-10" y="520" width="120" height="80" as="geometry" />
        </mxCell>
        <mxCell id="e0GcYGxdPTeqp4JWLvhb-46" style="edgeStyle=orthogonalEdgeStyle;rounded=0;orthogonalLoop=1;jettySize=auto;html=1;exitX=1;exitY=0.5;exitDx=0;exitDy=0;entryX=0;entryY=0.5;entryDx=0;entryDy=0;" edge="1" parent="1" source="e0GcYGxdPTeqp4JWLvhb-38" target="e0GcYGxdPTeqp4JWLvhb-45">
          <mxGeometry relative="1" as="geometry" />
        </mxCell>
        <mxCell id="e0GcYGxdPTeqp4JWLvhb-38" value="DeepSeek分析" style="ellipse;whiteSpace=wrap;html=1;fillColor=#ffe6cc;strokeColor=#d79b00;" vertex="1" parent="1">
          <mxGeometry x="560" y="735" width="120" height="80" as="geometry" />
        </mxCell>
        <mxCell id="e0GcYGxdPTeqp4JWLvhb-45" value="建议界面展示" style="whiteSpace=wrap;html=1;aspect=fixed;fillColor=#dae8fc;strokeColor=#6c8ebf;" vertex="1" parent="1">
          <mxGeometry x="770" y="735" width="80" height="80" as="geometry" />
        </mxCell>
        <mxCell id="e0GcYGxdPTeqp4JWLvhb-49" style="edgeStyle=orthogonalEdgeStyle;rounded=0;orthogonalLoop=1;jettySize=auto;html=1;exitX=0.5;exitY=1;exitDx=0;exitDy=0;entryX=0.5;entryY=0;entryDx=0;entryDy=0;" edge="1" parent="1" source="e0GcYGxdPTeqp4JWLvhb-47" target="e0GcYGxdPTeqp4JWLvhb-2">
          <mxGeometry relative="1" as="geometry" />
        </mxCell>
        <mxCell id="e0GcYGxdPTeqp4JWLvhb-47" value="首页展示" style="whiteSpace=wrap;html=1;aspect=fixed;fillColor=#dae8fc;strokeColor=#6c8ebf;" vertex="1" parent="1">
          <mxGeometry x="379" y="70" width="70" height="70" as="geometry" />
        </mxCell>
        <mxCell id="e0GcYGxdPTeqp4JWLvhb-51" style="edgeStyle=orthogonalEdgeStyle;rounded=0;orthogonalLoop=1;jettySize=auto;html=1;exitX=0;exitY=0.5;exitDx=0;exitDy=0;entryX=1;entryY=0.5;entryDx=0;entryDy=0;" edge="1" parent="1" source="e0GcYGxdPTeqp4JWLvhb-50" target="e0GcYGxdPTeqp4JWLvhb-10">
          <mxGeometry relative="1" as="geometry" />
        </mxCell>
        <mxCell id="e0GcYGxdPTeqp4JWLvhb-50" value="扫描界面" style="whiteSpace=wrap;html=1;aspect=fixed;fillColor=#dae8fc;strokeColor=#6c8ebf;" vertex="1" parent="1">
          <mxGeometry x="550" y="450" width="80" height="80" as="geometry" />
        </mxCell>
        <mxCell id="e0GcYGxdPTeqp4JWLvhb-52" value="历史记录" style="whiteSpace=wrap;html=1;aspect=fixed;fillColor=#dae8fc;strokeColor=#6c8ebf;" vertex="1" parent="1">
          <mxGeometry x="-140" y="520" width="80" height="80" as="geometry" />
        </mxCell>
      </root>
    </mxGraphModel>
  </diagram>
</mxfile>
